<mxfile host="65bd71144e">
    <diagram id="4sa0xL9CF5R-p0ik5wiJ" name="PÃ¡gina-1">
        <mxGraphModel dx="1643" dy="684" grid="1" gridSize="10" guides="1" tooltips="1" connect="1" arrows="1" fold="1" page="1" pageScale="1" pageWidth="827" pageHeight="1169" math="0" shadow="0">
            <root>
                <mxCell id="0"/>
                <mxCell id="1" parent="0"/>
                <mxCell id="25" value="" style="group" parent="1" vertex="1" connectable="0">
                    <mxGeometry y="220" width="480" height="600" as="geometry"/>
                </mxCell>
                <mxCell id="7" value="" style="shape=ext;double=1;rounded=1;whiteSpace=wrap;html=1;" parent="25" vertex="1">
                    <mxGeometry width="480" height="600" as="geometry"/>
                </mxCell>
                <mxCell id="10" value="" style="group;fontSize=18;" parent="25" vertex="1" connectable="0">
                    <mxGeometry x="37.5" y="40" width="402.5" height="105" as="geometry"/>
                </mxCell>
                <mxCell id="8" value="" style="shape=partialRectangle;whiteSpace=wrap;html=1;left=0;right=0;fillColor=none;" parent="10" vertex="1">
                    <mxGeometry width="402.5" height="60" as="geometry"/>
                </mxCell>
                <mxCell id="9" value="" style="line;strokeWidth=2;direction=south;html=1;" parent="10" vertex="1">
                    <mxGeometry x="196.25" width="10" height="60" as="geometry"/>
                </mxCell>
                <mxCell id="11" value="Ingresar" style="text;html=1;strokeColor=none;fillColor=none;align=center;verticalAlign=middle;whiteSpace=wrap;rounded=0;fontSize=20;" parent="10" vertex="1">
                    <mxGeometry x="62.5" y="15" width="60" height="30" as="geometry"/>
                </mxCell>
                <mxCell id="16" value="Registrar" style="text;html=1;strokeColor=none;fillColor=none;align=center;verticalAlign=middle;whiteSpace=wrap;rounded=0;fontSize=20;" parent="10" vertex="1">
                    <mxGeometry x="276.5" y="15" width="60" height="30" as="geometry"/>
                </mxCell>
                <mxCell id="17" value="" style="rounded=1;whiteSpace=wrap;html=1;fontSize=20;fillColor=#b0e3e6;strokeColor=#0e8088;opacity=20;" parent="25" vertex="1">
                    <mxGeometry x="40" y="150" width="400" height="60" as="geometry"/>
                </mxCell>
                <mxCell id="18" value="" style="rounded=1;whiteSpace=wrap;html=1;fontSize=20;fillColor=#b0e3e6;strokeColor=#0e8088;opacity=20;" parent="25" vertex="1">
                    <mxGeometry x="40" y="310" width="400" height="60" as="geometry"/>
                </mxCell>
                <mxCell id="19" value="" style="rounded=1;whiteSpace=wrap;html=1;fontSize=20;fillColor=#b0e3e6;strokeColor=#0e8088;opacity=20;" parent="25" vertex="1">
                    <mxGeometry x="40" y="230" width="400" height="60" as="geometry"/>
                </mxCell>
                <mxCell id="20" value="" style="rounded=1;whiteSpace=wrap;html=1;fontSize=20;fillColor=#b0e3e6;strokeColor=#0e8088;opacity=20;" parent="25" vertex="1">
                    <mxGeometry x="38.75" y="390" width="400" height="60" as="geometry"/>
                </mxCell>
                <mxCell id="21" value="" style="rounded=0;whiteSpace=wrap;html=1;fontSize=20;opacity=20;fillColor=#b1ddf0;strokeColor=none;" parent="25" vertex="1">
                    <mxGeometry x="240" y="40" width="200" height="60" as="geometry"/>
                </mxCell>
                <mxCell id="22" value="REGISTRAR" style="rounded=1;whiteSpace=wrap;html=1;fontSize=15;opacity=20;" parent="25" vertex="1">
                    <mxGeometry x="80" y="500" width="140" height="45" as="geometry"/>
                </mxCell>
                <mxCell id="23" value="CANCELAR" style="rounded=1;whiteSpace=wrap;html=1;fontSize=15;opacity=20;" parent="25" vertex="1">
                    <mxGeometry x="260" y="500" width="140" height="45" as="geometry"/>
                </mxCell>
                <mxCell id="61" value="" style="group" parent="1" vertex="1" connectable="0">
                    <mxGeometry x="830" y="119" width="1600" height="1050" as="geometry"/>
                </mxCell>
                <mxCell id="27" value="" style="shape=ext;double=1;rounded=0;whiteSpace=wrap;html=1;fontSize=15;" parent="61" vertex="1">
                    <mxGeometry y="150" width="1600" height="900" as="geometry"/>
                </mxCell>
                <mxCell id="29" value="" style="rounded=0;whiteSpace=wrap;html=1;fontSize=15;fillColor=#b1ddf0;strokeColor=#0e1010;opacity=20;" parent="61" vertex="1">
                    <mxGeometry y="150" width="400" height="900" as="geometry"/>
                </mxCell>
                <mxCell id="45" value="LOG OUT" style="rounded=1;whiteSpace=wrap;html=1;fontSize=15;opacity=30;fillColor=#e51400;strokeColor=#B20000;fontColor=#ffffff;" parent="61" vertex="1">
                    <mxGeometry x="130" y="970" width="140" height="45" as="geometry"/>
                </mxCell>
                <mxCell id="47" value="" style="rounded=1;whiteSpace=wrap;html=1;fontSize=20;fillColor=#b0e3e6;strokeColor=#0e8088;opacity=20;" parent="61" vertex="1">
                    <mxGeometry x="25" y="270" width="350" height="60" as="geometry"/>
                </mxCell>
                <mxCell id="48" value="" style="rounded=1;whiteSpace=wrap;html=1;fontSize=20;fillColor=#b0e3e6;strokeColor=#0e8088;opacity=20;" parent="61" vertex="1">
                    <mxGeometry x="25" y="350" width="350" height="60" as="geometry"/>
                </mxCell>
                <mxCell id="49" value="" style="rounded=1;whiteSpace=wrap;html=1;fontSize=20;fillColor=#b0e3e6;strokeColor=#0e8088;opacity=20;" parent="61" vertex="1">
                    <mxGeometry x="25" y="430" width="350" height="60" as="geometry"/>
                </mxCell>
                <mxCell id="50" value="" style="rounded=1;whiteSpace=wrap;html=1;fontSize=20;fillColor=#b0e3e6;strokeColor=#0e8088;opacity=20;" parent="61" vertex="1">
                    <mxGeometry x="25" y="510" width="350" height="60" as="geometry"/>
                </mxCell>
                <mxCell id="51" value="" style="rounded=1;whiteSpace=wrap;html=1;fontSize=20;fillColor=#b0e3e6;strokeColor=#0e8088;opacity=20;" parent="61" vertex="1">
                    <mxGeometry x="25" y="590" width="350" height="60" as="geometry"/>
                </mxCell>
                <mxCell id="53" value="HISTORIAL" style="text;html=1;strokeColor=none;fillColor=none;align=center;verticalAlign=middle;whiteSpace=wrap;rounded=0;fontSize=20;opacity=30;" parent="61" vertex="1">
                    <mxGeometry x="20" y="180" width="150" height="30" as="geometry"/>
                </mxCell>
                <mxCell id="54" value="" style="line;strokeWidth=2;html=1;strokeColor=#FFFFFF;fontSize=20;opacity=30;" parent="61" vertex="1">
                    <mxGeometry y="210" width="400" height="10" as="geometry"/>
                </mxCell>
                <mxCell id="55" value="" style="rounded=0;whiteSpace=wrap;html=1;strokeColor=#FFFFFF;fontSize=20;opacity=30;" parent="61" vertex="1">
                    <mxGeometry x="480" y="220" width="1040" height="680" as="geometry"/>
                </mxCell>
                <mxCell id="56" value="" style="rounded=1;whiteSpace=wrap;html=1;fontSize=20;fillColor=#b0e3e6;strokeColor=#0e8088;opacity=20;" parent="61" vertex="1">
                    <mxGeometry x="480" y="940" width="1040" height="60" as="geometry"/>
                </mxCell>
                <mxCell id="57" value="" style="triangle;whiteSpace=wrap;html=1;strokeColor=#10739E;fontSize=20;fillColor=#10739E;" parent="61" vertex="1">
                    <mxGeometry x="1470" y="951.5" width="30" height="37" as="geometry"/>
                </mxCell>
                <mxCell id="58" value="" style="rounded=1;whiteSpace=wrap;html=1;fontSize=20;fillColor=#b0e3e6;strokeColor=#0e8088;opacity=20;" parent="61" vertex="1">
                    <mxGeometry x="520" y="250" width="460" height="270" as="geometry"/>
                </mxCell>
                <mxCell id="59" value="" style="rounded=1;whiteSpace=wrap;html=1;fontSize=20;fillColor=#fad9d5;strokeColor=#ae4132;opacity=20;" parent="61" vertex="1">
                    <mxGeometry x="1010" y="540" width="460" height="150" as="geometry"/>
                </mxCell>
                <mxCell id="60" value="&lt;font style=&quot;font-size: 100px;&quot;&gt;USER&lt;/font&gt;" style="text;html=1;strokeColor=none;fillColor=none;align=center;verticalAlign=middle;whiteSpace=wrap;rounded=0;fontSize=41;" parent="61" vertex="1">
                    <mxGeometry x="800" width="400" height="105" as="geometry"/>
                </mxCell>
                <mxCell id="62" value="" style="group" parent="1" vertex="1" connectable="0">
                    <mxGeometry x="-773" y="1020" width="1600" height="1050" as="geometry"/>
                </mxCell>
                <mxCell id="63" value="" style="shape=ext;double=1;rounded=0;whiteSpace=wrap;html=1;fontSize=15;" parent="62" vertex="1">
                    <mxGeometry y="150" width="1600" height="900" as="geometry"/>
                </mxCell>
                <mxCell id="64" value="" style="rounded=0;whiteSpace=wrap;html=1;fontSize=15;fillColor=#b1ddf0;strokeColor=#0e1010;opacity=20;" parent="62" vertex="1">
                    <mxGeometry y="150" width="400" height="900" as="geometry"/>
                </mxCell>
                <mxCell id="65" value="LOG OUT" style="rounded=1;whiteSpace=wrap;html=1;fontSize=15;opacity=30;fillColor=#e51400;strokeColor=#B20000;fontColor=#ffffff;" parent="62" vertex="1">
                    <mxGeometry x="130" y="970" width="140" height="45" as="geometry"/>
                </mxCell>
                <mxCell id="66" value="COLECCIONES" style="rounded=1;whiteSpace=wrap;html=1;fontSize=20;fillColor=#b0e3e6;strokeColor=#0e8088;opacity=20;align=left;" parent="62" vertex="1">
                    <mxGeometry x="25" y="270" width="350" height="60" as="geometry"/>
                </mxCell>
                <mxCell id="67" value="GESTION DOCUMENTO&lt;span style=&quot;white-space: pre;&quot;&gt;&#9;&lt;/span&gt;" style="rounded=1;whiteSpace=wrap;html=1;fontSize=20;fillColor=#b0e3e6;strokeColor=#0e8088;opacity=20;align=left;" parent="62" vertex="1">
                    <mxGeometry x="25" y="350" width="350" height="60" as="geometry"/>
                </mxCell>
                <mxCell id="68" value="PARAMETROS MODELOS" style="rounded=1;whiteSpace=wrap;html=1;fontSize=20;fillColor=#b0e3e6;strokeColor=#0e8088;opacity=20;align=left;" parent="62" vertex="1">
                    <mxGeometry x="25" y="430" width="350" height="60" as="geometry"/>
                </mxCell>
                <mxCell id="69" value="GESTION USUARIOS" style="rounded=1;whiteSpace=wrap;html=1;fontSize=20;fillColor=#b0e3e6;strokeColor=#0e8088;opacity=20;align=left;" parent="62" vertex="1">
                    <mxGeometry x="25" y="510" width="350" height="60" as="geometry"/>
                </mxCell>
                <mxCell id="70" value="CHATBOT" style="rounded=1;whiteSpace=wrap;html=1;fontSize=20;fillColor=#b0e3e6;strokeColor=#0e8088;opacity=20;align=left;" parent="62" vertex="1">
                    <mxGeometry x="25" y="590" width="350" height="60" as="geometry"/>
                </mxCell>
                <mxCell id="73" value="" style="rounded=0;whiteSpace=wrap;html=1;strokeColor=#FFFFFF;fontSize=20;opacity=30;" parent="62" vertex="1">
                    <mxGeometry x="480" y="220" width="1040" height="680" as="geometry"/>
                </mxCell>
                <mxCell id="74" value="" style="rounded=1;whiteSpace=wrap;html=1;fontSize=20;fillColor=#b0e3e6;strokeColor=#0e8088;opacity=20;" parent="62" vertex="1">
                    <mxGeometry x="480" y="940" width="1040" height="60" as="geometry"/>
                </mxCell>
                <mxCell id="75" value="" style="triangle;whiteSpace=wrap;html=1;strokeColor=#10739E;fontSize=20;fillColor=#10739E;" parent="62" vertex="1">
                    <mxGeometry x="1470" y="951.5" width="30" height="37" as="geometry"/>
                </mxCell>
                <mxCell id="76" value="" style="rounded=1;whiteSpace=wrap;html=1;fontSize=20;fillColor=#b0e3e6;strokeColor=#0e8088;opacity=20;" parent="62" vertex="1">
                    <mxGeometry x="520" y="250" width="460" height="270" as="geometry"/>
                </mxCell>
                <mxCell id="77" value="" style="rounded=1;whiteSpace=wrap;html=1;fontSize=20;fillColor=#fad9d5;strokeColor=#ae4132;opacity=20;" parent="62" vertex="1">
                    <mxGeometry x="1010" y="540" width="460" height="150" as="geometry"/>
                </mxCell>
                <mxCell id="78" value="&lt;font style=&quot;font-size: 100px;&quot;&gt;ADMIN&lt;/font&gt;" style="text;html=1;strokeColor=none;fillColor=none;align=center;verticalAlign=middle;whiteSpace=wrap;rounded=0;fontSize=41;" parent="62" vertex="1">
                    <mxGeometry x="800" width="400" height="105" as="geometry"/>
                </mxCell>
                <mxCell id="80" value="&lt;font style=&quot;font-size: 100px;&quot;&gt;LOGIN&lt;/font&gt;" style="text;html=1;strokeColor=none;fillColor=none;align=center;verticalAlign=middle;whiteSpace=wrap;rounded=0;fontSize=41;" parent="1" vertex="1">
                    <mxGeometry x="40" y="80" width="400" height="105" as="geometry"/>
                </mxCell>
            </root>
        </mxGraphModel>
    </diagram>
</mxfile>